<?xml version="1.0" standalone="no"?>
<!DOCTYPE svg PUBLIC "-//W3C//DTD SVG 20010904//EN"
 "http://www.w3.org/TR/2001/REC-SVG-20010904/DTD/svg10.dtd">
<svg version="1.0" xmlns="http://www.w3.org/2000/svg"
 width="512.000000pt" height="512.000000pt" viewBox="0 0 512.000000 512.000000"
 preserveAspectRatio="xMidYMid meet">

<g transform="translate(0.000000,512.000000) scale(0.100000,-0.100000)"
fill="#000000" stroke="none">
<path d="M2505 4486 c-42 -18 -92 -78 -104 -123 -5 -21 -123 -630 -262 -1353
-139 -723 -255 -1318 -259 -1323 -3 -4 -84 302 -180 680 -208 826 -193 775
-233 820 -77 87 -206 84 -278 -7 -17 -22 -78 -168 -162 -395 l-135 -360 -384
-5 -385 -5 -40 -27 c-116 -77 -105 -256 19 -317 43 -20 56 -21 499 -21 452 0
455 0 499 22 59 30 86 74 146 235 26 73 49 131 50 130 1 -1 100 -387 219 -857
174 -686 221 -861 241 -888 53 -69 149 -91 232 -51 86 42 65 -44 353 1454 144
748 264 1363 268 1367 3 4 87 -294 185 -661 98 -367 186 -683 195 -701 9 -18
33 -47 54 -64 35 -28 46 -31 106 -31 58 0 74 4 108 28 49 34 51 37 263 535
147 344 165 381 175 360 7 -13 65 -167 131 -342 65 -176 128 -333 139 -350 11
-17 41 -42 65 -56 l45 -25 419 -3 c274 -2 436 1 469 8 124 26 188 145 138 255
-22 50 -69 91 -119 105 -22 6 -177 10 -388 10 l-351 0 -189 507 c-142 382
-196 516 -219 542 -85 97 -236 77 -298 -38 -14 -25 -96 -212 -183 -415 -120
-281 -160 -365 -166 -350 -4 10 -98 357 -209 769 -110 413 -207 774 -216 803
-17 61 -63 119 -110 138 -41 17 -109 17 -148 0z"/>
</g>
</svg>
